<svg width="24" height="25" viewBox="0 0 24 25" fill="none" xmlns="http://www.w3.org/2000/svg">
    <path d="M12 24.5C5.38455 24.5 0 19.1154 0 12.5C0 5.88455 5.38455 0.5 12 0.5C18.6154 0.5 24 5.88455 24 12.5C24 19.1154 18.6154 24.5 12 24.5ZM12 1.85973C6.13206 1.85973 1.35973 6.63206 1.35973 12.5C1.35973 18.3679 6.13206 23.1403 12 23.1403C17.8679 23.1403 22.6403 18.3679 22.6403 12.5C22.6403 6.63206 17.8679 1.85973 12 1.85973Z" fill="#7D23E0"/>
    <path d="M13.6558 16.4901C13.4818 16.4901 13.3092 16.4224 13.1764 16.2896L9.86605 12.9792C9.60048 12.7136 9.60048 12.2821 9.86605 12.0179L13.1764 8.70748C13.442 8.44191 13.8736 8.44191 14.1378 8.70748C14.4034 8.97305 14.4034 9.40462 14.1378 9.66885L11.3094 12.4972L14.1378 15.3255C14.4034 15.5911 14.4034 16.0227 14.1378 16.2869C14.005 16.4197 13.8324 16.4874 13.6584 16.4874L13.6558 16.4901Z" fill="#7D23E0"/>
</svg>
