<svg width="28" height="25" viewBox="0 0 28 25" fill="none" xmlns="http://www.w3.org/2000/svg">
    <path d="M13.8887 3.76058L14.2816 4.25991L14.6746 3.76058C16.029 2.03931 18.0813 1 20.2819 1C24.2452 1 27.4966 4.32311 27.5 8.43855C27.4999 10.8818 26.3486 12.5977 25.3485 14.0735L25.3484 14.0736C23.941 16.1515 21.4418 18.5138 19.2235 20.4039C17.0155 22.2852 15.1289 23.663 14.9808 23.7701L14.9783 23.7719C14.5628 24.0762 13.9991 24.0758 13.5853 23.7721L13.5825 23.7701C13.4343 23.6629 11.5474 22.2852 9.33928 20.4039C7.12086 18.5138 4.62171 16.1515 3.21491 14.0737L3.21478 14.0735C2.21721 12.6015 1.06564 10.8818 1.06564 8.43814C1.06564 4.32304 4.31447 1 8.28133 1C10.4842 1 12.5342 2.03925 13.8887 3.76058Z" stroke="#E13B30"/>
</svg>
