<svg width="20" height="18" viewBox="0 0 20 18" fill="none" xmlns="http://www.w3.org/2000/svg">
    <path d="M14.1081 0C17.0636 0 19.4595 2.43243 19.4595 5.83784C19.4595 12.6486 12.1622 16.5405 9.72973 18C7.2973 16.5405 0 12.6486 0 5.83784C0 2.43243 2.43243 0 5.35135 0C7.16105 0 8.75676 0.972973 9.72973 1.94595C10.7027 0.972973 12.2984 0 14.1081 0ZM10.6384 15.1821C11.4962 14.6418 12.2692 14.1037 12.994 13.5271C15.8922 11.2213 17.5135 8.70178 17.5135 5.83784C17.5135 3.54236 16.0181 1.94595 14.1081 1.94595C13.0613 1.94595 11.928 2.49967 11.1057 3.32193L9.72973 4.69793L8.35375 3.32193C7.53147 2.49967 6.39817 1.94595 5.35135 1.94595C3.46287 1.94595 1.94595 3.55768 1.94595 5.83784C1.94595 8.70178 3.56718 11.2213 6.46554 13.5271C7.19027 14.1037 7.9633 14.6418 8.82107 15.1821C9.1115 15.3651 9.39999 15.5412 9.72973 15.738C10.0595 15.5412 10.348 15.3651 10.6384 15.1821Z" fill="white"/>
</svg>
