<svg width="16" height="16" viewBox="0 0 16 16" fill="none" xmlns="http://www.w3.org/2000/svg">
    <path d="M4.87503 12.6955L8.00001 10.3141L11.125 12.6955L9.95513 8.82692L13.0721 6.61219H9.25321L8.00001 2.55132L6.7468 6.61219H2.92792L6.04488 8.82692L4.87503 12.6955ZM8.0014 15.9167C6.90646 15.9167 5.87726 15.7089 4.91382 15.2933C3.95036 14.8778 3.11229 14.3138 2.39961 13.6014C1.68691 12.8891 1.1227 12.0514 0.706963 11.0883C0.291227 10.1253 0.0833588 9.09635 0.0833588 8.0014C0.0833588 6.90646 0.291137 5.87726 0.706692 4.91382C1.12225 3.95036 1.68621 3.11229 2.39857 2.39961C3.11094 1.68692 3.94864 1.1227 4.91167 0.706964C5.87469 0.291228 6.90367 0.0833588 7.99861 0.0833588C9.09355 0.0833588 10.1228 0.291137 11.0862 0.706693C12.0497 1.12225 12.8877 1.68621 13.6004 2.39857C14.3131 3.11094 14.8773 3.94864 15.293 4.91167C15.7088 5.87469 15.9167 6.90367 15.9167 7.99861C15.9167 9.09356 15.7089 10.1227 15.2933 11.0862C14.8778 12.0497 14.3138 12.8877 13.6014 13.6004C12.8891 14.3131 12.0514 14.8773 11.0883 15.293C10.1253 15.7088 9.09635 15.9167 8.0014 15.9167Z" fill="#029C42"/>
</svg>
