<svg width="36" height="36" viewBox="0 0 36 36" fill="none" xmlns="http://www.w3.org/2000/svg">
<path d="M14.8488 30.9576C14.8486 30.7433 14.7534 30.54 14.5889 30.4025C14.4231 30.267 14.2067 30.2098 13.9957 30.2457C11.6946 30.6723 8.77636 30.678 7.92885 28.2979C7.40754 27.0257 6.57211 25.9065 5.50071 25.0448C5.27894 24.9311 5.07907 24.7791 4.91028 24.5957C4.85324 24.2473 4.55282 23.9911 4.19977 23.9897H4.19686C3.79862 23.9897 3.47523 24.3117 3.47365 24.71C3.46941 25.535 4.50197 26.1522 4.80707 26.3147C5.57372 27.0033 6.17731 27.8541 6.57423 28.805C7.07851 30.2218 8.61534 32.4141 13.4052 31.8024C13.4095 32.3293 13.4165 32.6019 13.4222 32.8096L13.4292 33.2361C13.4292 33.6355 13.7531 33.9594 14.1524 33.9594C14.5518 33.9594 14.8757 33.6355 14.8757 33.2361L14.8686 32.7699C14.8601 32.4789 14.8488 32.0595 14.8488 30.9576ZM31.1466 8.33319C31.1028 8.27811 31.0562 8.22019 31.0081 8.16228C31.1053 7.85655 31.1816 7.54465 31.237 7.22869C31.4609 5.67641 31.2623 4.09243 30.6621 2.64344C30.583 2.44437 30.4194 2.29066 30.2157 2.22401C30.0109 2.15621 28.1421 1.65335 24.2421 4.22274C20.9747 3.39217 17.5513 3.39217 14.2838 4.22274C10.3852 1.68301 8.52776 2.15904 8.32153 2.21977C8.11398 2.28528 7.94659 2.44022 7.86528 2.64212C7.2541 4.113 7.05679 5.72293 7.29462 7.29781C7.34998 7.58658 7.42025 7.87227 7.50509 8.1538C7.45424 8.21604 7.40621 8.2781 7.36101 8.33884C6.13653 9.89236 5.485 11.8205 5.51625 13.7984C5.51272 14.2469 5.53346 14.6953 5.5784 15.1417C6.06996 21.8879 10.422 23.7651 14.1808 24.4064C13.936 24.8453 13.753 25.3158 13.6369 25.8048C13.5417 26.1925 13.7788 26.584 14.1666 26.6792C14.5543 26.7744 14.9458 26.5372 15.0409 26.1495C15.1748 25.4846 15.5107 24.8773 16.0028 24.4107C16.3037 24.1474 16.3344 23.69 16.0711 23.3891C15.9524 23.2535 15.7876 23.167 15.6087 23.1465C11.6212 22.6945 7.48249 21.3766 7.01909 15.0103C6.97822 14.6076 6.95941 14.203 6.96268 13.7984C6.9354 12.1382 7.48222 10.5195 8.51081 9.21602C8.61957 9.06912 8.74105 8.93493 8.86112 8.80215C9.04448 8.59981 9.0986 8.31148 9.00096 8.05634C8.87754 7.73013 8.78343 7.3936 8.71986 7.05062C8.54665 5.88784 8.66213 4.70035 9.05604 3.59275C10.7738 3.83191 12.396 4.52696 13.754 5.6056C13.9294 5.7239 14.1479 5.75904 14.3515 5.70165C17.569 4.82871 20.961 4.82871 24.1785 5.70165C24.3832 5.75886 24.6027 5.7232 24.7787 5.60419C26.1272 4.51443 27.7488 3.81522 29.467 3.58286C29.8563 4.67378 29.9741 5.84317 29.8102 6.98988C29.7463 7.35431 29.6465 7.71159 29.5122 8.05634C29.4145 8.31148 29.4686 8.59972 29.652 8.80215C29.7792 8.94199 29.9063 9.09878 30.0178 9.23862C31.0488 10.5321 31.5964 12.1445 31.5661 13.7984C31.5694 14.212 31.5491 14.6257 31.5054 15.0371C31.0463 21.3737 26.892 22.6916 22.8889 23.1465C22.4917 23.192 22.2067 23.5511 22.2523 23.9483C22.2729 24.1272 22.3593 24.292 22.4948 24.4106C22.9935 24.8806 23.3273 25.4988 23.447 26.1734C23.5702 26.6498 23.6277 27.1407 23.6178 27.6326V31.1894C23.6023 32.1669 23.6023 32.9 23.6023 33.2361C23.6029 33.6354 23.9271 33.9588 24.3265 33.9583C24.7251 33.9577 25.0482 33.6347 25.0488 33.2361C25.0488 32.9027 25.0488 32.1781 25.0642 31.2006V27.6326C25.0756 27.0201 25.0029 26.4089 24.8482 25.816C24.7393 25.3232 24.5606 24.8485 24.3171 24.4063C28.0899 23.7665 32.4588 21.8906 32.9462 15.1712C32.9941 14.7152 33.0162 14.2568 33.0126 13.7983C33.0455 11.8149 32.3856 9.88221 31.1466 8.33319Z" fill="white"/>
</svg>
