<svg width="35" height="35" viewBox="0 0 35 35" fill="none" xmlns="http://www.w3.org/2000/svg">
<path d="M29.2902 29.2902C28.9908 29.2902 28.7478 29.0472 28.7478 28.7477V14.6451C28.7478 14.3457 28.9908 14.1027 29.2902 14.1027C29.5896 14.1027 29.8326 14.3457 29.8326 14.6451V28.7477C29.8326 29.0472 29.5896 29.2902 29.2902 29.2902ZM5.42415 29.2902C5.12474 29.2902 4.88174 29.0472 4.88174 28.7477V14.6451C4.88174 14.3457 5.12474 14.1027 5.42415 14.1027C5.72356 14.1027 5.96656 14.3457 5.96656 14.6451V28.7477C5.96656 29.0472 5.72356 29.2902 5.42415 29.2902ZM17.3572 15.6561C17.2498 15.6561 17.1435 15.6247 17.0513 15.5617L3.85441 6.53169C3.60707 6.36246 3.54415 6.02508 3.71338 5.77774C3.88262 5.5304 4.21891 5.46639 4.46734 5.63671L17.3572 14.4563L27.075 7.80744C27.3234 7.63821 27.6608 7.70221 27.829 7.94847C27.9982 8.19581 27.9353 8.53318 27.6879 8.70242L17.6642 15.5607C17.5709 15.6247 17.4646 15.6561 17.3572 15.6561Z" fill="white"/>
<path d="M30.9173 29.2901H3.79677C2.30189 29.2901 1.08472 28.073 1.08472 26.5781V8.13613C1.08472 7.83671 1.32772 7.59371 1.62713 7.59371C1.92654 7.59371 2.16954 7.83671 2.16954 8.13613V26.5781C2.16954 27.4752 2.89962 28.2053 3.79677 28.2053H30.9173C31.8145 28.2053 32.5445 27.4752 32.5445 26.5781V8.13613C32.5445 7.23898 31.8145 6.50889 30.9173 6.50889C30.6179 6.50889 30.3749 6.26589 30.3749 5.96648C30.3749 5.66707 30.6179 5.42407 30.9173 5.42407C32.4122 5.42407 33.6294 6.64124 33.6294 8.13613V26.5781C33.6294 28.073 32.4122 29.2901 30.9173 29.2901Z" fill="white"/>
<path d="M17.357 20.6116C17.2496 20.6116 17.1422 20.5801 17.0489 20.5161L2.24114 10.3036C1.51648 9.80458 1.08472 8.98012 1.08472 8.10033C1.08472 6.62497 2.28561 5.42407 3.76097 5.42407H30.952C32.4285 5.42407 33.6294 6.62497 33.6294 8.10033C33.6294 8.98012 33.1976 9.8035 32.4729 10.3036L17.6651 20.5161C17.5718 20.5801 17.4644 20.6116 17.357 20.6116ZM3.76097 6.50889C2.88335 6.50889 2.16954 7.22271 2.16954 8.10033C2.16954 8.6243 2.42664 9.11355 2.85732 9.41079L17.357 19.4107L31.8568 9.41079C32.2874 9.11355 32.5445 8.6243 32.5445 8.10033C32.5445 7.22271 31.8307 6.50889 30.9531 6.50889H3.76097Z" fill="white"/>
</svg>
