<svg width="36" height="35" viewBox="0 0 36 35" fill="none" xmlns="http://www.w3.org/2000/svg">
<path d="M6.03447 9.62777H5.98782C3.51117 9.62777 1.71362 7.98535 1.71362 5.72241C1.71362 3.45622 3.54914 1.81055 6.07786 1.81055C8.56427 1.81055 10.339 3.41174 10.3922 5.70397C10.3922 7.98318 8.55993 9.62777 6.03447 9.62777ZM6.07786 2.89537C4.14688 2.89537 2.79844 4.0583 2.79844 5.72241C2.79844 7.38327 4.10999 8.54403 5.98782 8.54403H6.03447C7.96219 8.54295 9.30737 7.3811 9.30737 5.71699C9.26723 4.00731 8.00016 2.89537 6.07786 2.89537ZM8.76496 31.4598H3.34086C3.04144 31.4598 2.79844 31.2168 2.79844 30.9174V11.3906C2.79844 11.0912 3.04144 10.8482 3.34086 10.8482H8.76496C9.06437 10.8482 9.30737 11.0912 9.30737 11.3906V30.9174C9.30737 31.2168 9.06437 31.4598 8.76496 31.4598ZM3.88327 30.375H8.22255V11.933H3.88327V30.375ZM33.7159 31.4598H27.2069C26.9075 31.4598 26.6645 31.2168 26.6645 30.9174V20.6116C26.6645 18.8173 25.2043 17.3571 23.4101 17.3571C21.6158 17.3571 20.1556 18.8173 20.1556 20.6116V30.9174C20.1556 31.2168 19.9126 31.4598 19.6132 31.4598H13.1042C12.8048 31.4598 12.5618 31.2168 12.5618 30.9174V11.3906C12.5618 11.0912 12.8048 10.8482 13.1042 10.8482H19.6132C19.9126 10.8482 20.1556 11.0912 20.1556 11.3906V14.6603C20.1556 14.9597 19.9126 15.2027 19.6132 15.2027C19.3138 15.2027 19.0708 14.9597 19.0708 14.6603V11.933H13.6467V30.375H19.0708V20.6116C19.0708 18.2185 21.0169 16.2723 23.4101 16.2723C25.8032 16.2723 27.7493 18.2185 27.7493 20.6116V30.375H33.1734V18.9844C33.1734 15.0964 30.0101 11.933 26.1221 11.933C24.6207 11.933 23.1692 12.3735 21.9228 13.2055C21.6743 13.3704 21.337 13.3053 21.171 13.0558C21.005 12.8063 21.0712 12.47 21.3218 12.304C22.7461 11.3516 24.4059 10.8482 26.1221 10.8482C30.6089 10.8482 34.2583 14.4975 34.2583 18.9844V30.9174C34.2583 31.2168 34.0153 31.4598 33.7159 31.4598Z" fill="white"/>
</svg>
