<svg width="36" height="35" viewBox="0 0 36 35" fill="none" xmlns="http://www.w3.org/2000/svg">
<path d="M27.5526 32.8704C27.1165 32.8704 26.6381 32.7272 26.1206 32.4419L14.4013 23.7894C14.27 23.6928 14.1898 23.542 14.1811 23.3793C14.1735 23.2166 14.2386 23.0593 14.3601 22.9497L28.2415 10.458C28.4639 10.2573 28.8067 10.2747 29.0073 10.4982C29.208 10.7205 29.1896 11.0633 28.9672 11.264L15.5805 23.3121L26.7043 31.5307C26.9983 31.688 27.4951 31.8876 27.8488 31.7238C28.2089 31.5589 28.3868 31.0327 28.4736 30.6205L33.2197 8.25474C33.4041 7.51598 33.3152 6.92149 32.9865 6.64812C32.7359 6.43983 32.3627 6.42465 31.9591 6.6069L4.06188 17.3662C3.20595 17.71 2.93692 18.0637 2.94126 18.1809C2.94451 18.2579 3.12893 18.4705 3.67894 18.6387L10.5947 20.7974L18.1873 16.0069C18.4412 15.8485 18.7753 15.9233 18.9348 16.1761C19.0942 16.4289 19.0194 16.7641 18.7655 16.9235L10.9613 21.8476C10.8268 21.9322 10.6608 21.9539 10.5101 21.9072L3.35891 19.6747C2.08967 19.2863 1.87271 18.6007 1.85752 18.2264C1.83583 17.7133 2.13198 16.9713 3.66592 16.3573L31.5404 5.60886C32.2965 5.26389 33.108 5.33766 33.6818 5.81606C34.3468 6.37041 34.5638 7.34891 34.2774 8.49991L29.5357 30.8451C29.336 31.7975 28.9216 32.4256 28.3022 32.7099C28.069 32.8173 27.8195 32.8704 27.5526 32.8704Z" fill="white"/>
<path d="M27.5526 32.8704C27.1165 32.8704 26.6381 32.7272 26.1206 32.4419L18.8306 27.0623C18.5898 26.8844 18.5377 26.5437 18.7167 26.304C18.8946 26.0632 19.2353 26.0111 19.475 26.1901L26.7043 31.5307C26.9983 31.688 27.4951 31.8876 27.8488 31.7238C28.2089 31.5589 28.3868 31.0327 28.4736 30.6205L33.2197 8.25474C33.4041 7.51598 33.3152 6.92149 32.9865 6.64812C32.7359 6.43983 32.3627 6.42465 31.9591 6.6069L4.06188 17.3662C3.20595 17.71 2.93692 18.0637 2.94126 18.1809C2.94451 18.2579 3.12893 18.4705 3.67894 18.6387L10.8322 20.8712C11.0037 20.9244 11.1371 21.06 11.1902 21.2314L13.6495 29.3252C13.7157 29.5064 13.7667 29.6865 13.8112 29.8427C13.8459 29.9664 13.8893 30.1204 13.9186 30.166C13.9142 30.1605 14.001 30.1866 14.2321 30.1877C14.717 30.1877 14.9014 30.0065 15.2703 29.6474L17.0711 27.8965C17.2859 27.6861 17.6287 27.6926 17.838 27.9074C18.0463 28.1222 18.042 28.466 17.8272 28.6743L16.0568 30.3938C15.6207 30.8201 15.1585 31.2714 14.2321 31.2714C13.169 31.2714 12.9542 30.8006 12.7665 30.1367C12.7285 30.0022 12.6851 29.847 12.62 29.668L10.2356 21.8215L3.35891 19.6747C2.08967 19.2863 1.87271 18.6007 1.85752 18.2264C1.83583 17.7133 2.13198 16.9713 3.66592 16.3573L31.5404 5.60886C32.2965 5.26389 33.108 5.33766 33.6818 5.81606C34.3468 6.37041 34.5638 7.34891 34.2774 8.49991L29.5357 30.8451C29.336 31.7975 28.9216 32.4256 28.3022 32.7099C28.069 32.8173 27.8195 32.8704 27.5526 32.8704Z" fill="white"/>
<path d="M20.8407 15.3365C20.8407 15.6348 20.5966 15.8789 20.2983 15.8789C19.9999 15.8789 19.7559 15.6348 19.7559 15.3365C19.7559 15.0382 19.9999 14.7941 20.2983 14.7941C20.5966 14.7941 20.8407 15.0382 20.8407 15.3365Z" fill="white"/>
</svg>
