<svg width="36" height="35" viewBox="0 0 36 35" fill="none" xmlns="http://www.w3.org/2000/svg">
<path d="M17.7615 33.7784C14.6503 33.7784 11.6366 32.8986 9.02871 31.2323L3.22709 33.0863C3.0329 33.1481 2.81919 33.0961 2.67491 32.9507C2.53172 32.8053 2.48181 32.5905 2.54799 32.3974L4.41931 26.8149C2.49917 24.0812 1.48486 20.869 1.48486 17.5061C1.48486 13.0844 3.2336 8.94576 6.40887 5.85293C6.62258 5.64465 6.96647 5.64899 7.17584 5.8627C7.38412 6.07749 7.37978 6.42138 7.16499 6.62967C4.20234 9.51746 2.56968 13.3794 2.56968 17.5061C2.56968 20.7323 3.56989 23.81 5.46073 26.406C5.56379 26.5481 5.592 26.7314 5.53559 26.8985L3.91703 31.7281L8.94301 30.1215C9.09923 30.0705 9.27063 30.0954 9.4084 30.1855C11.8872 31.8257 14.7761 32.6936 17.7615 32.6936C26.1342 32.6936 32.9447 25.8809 32.9447 17.5061C32.9447 9.13235 26.1342 2.31859 17.7615 2.31859H17.7583C15.4075 2.31859 13.1608 2.84039 11.0714 3.8688C10.8024 4.00006 10.478 3.89049 10.3457 3.62254C10.2133 3.35459 10.3229 3.02806 10.593 2.89571C12.8321 1.79353 15.2426 1.23376 17.7528 1.23376C26.7308 1.23376 34.0295 8.53353 34.0295 17.5061C34.0295 26.4786 26.7308 33.7784 17.7615 33.7784Z" fill="white"/>
<path d="M22.7496 26.7195C21.6528 26.7195 20.1221 26.2964 17.934 25.3895C15.0777 24.2071 12.2463 21.7293 9.9606 18.4152L9.87924 18.2991C9.12421 17.2675 7.90161 15.2909 7.90161 13.2276C7.90161 10.8095 9.11119 9.58258 9.62865 9.05861C10.1157 8.55851 10.8436 8.29272 11.6616 8.29272C11.8677 8.29272 12.0521 8.30249 12.2203 8.31225C12.9091 8.33937 13.3084 8.51294 13.688 9.42094L14.0818 10.3756C14.4984 11.3856 15.0115 12.632 15.0918 12.8002C15.1808 12.9835 15.4509 13.5465 15.1504 14.1323C14.9898 14.4751 14.8325 14.6563 14.6167 14.9058C14.4648 15.0805 14.3639 15.1889 14.2608 15.2974C14.1415 15.4254 14.02 15.5513 13.8985 15.7042C13.6891 15.9494 13.6891 15.9494 13.7596 16.072C14.161 16.75 15.0148 18.0518 16.2037 19.1095C17.7464 20.4818 18.9928 20.9862 19.5916 21.2292L19.7403 21.29C19.8976 21.3551 20.0961 21.4017 20.2447 21.2444C20.5137 20.9548 20.8544 20.4785 21.2145 19.9741L21.4304 19.6714C21.809 19.1366 22.2755 19.0238 22.5999 19.0238C22.7897 19.0238 22.9871 19.0617 23.1889 19.1377C23.6934 19.3134 26.3479 20.6358 26.375 20.6488L26.63 20.7736C27.0097 20.9558 27.3091 21.1001 27.4805 21.4017C27.7289 21.8335 27.6313 22.966 27.2537 24.0346C26.8014 25.3136 25.1199 26.3127 23.7682 26.6034C23.4992 26.6598 23.1792 26.7195 22.7496 26.7195ZM11.6605 9.37755C11.1485 9.37755 10.682 9.53159 10.4412 9.77785C9.94108 10.2855 8.98535 11.2543 8.98535 13.2276C8.98535 14.5088 9.61997 16.111 10.7265 17.6222L10.8523 17.8012C13.0198 20.945 15.682 23.285 18.3474 24.3882C20.4009 25.2398 21.7993 25.6358 22.7485 25.6358C23.0739 25.6358 23.3158 25.5902 23.5371 25.5436C24.5927 25.3157 25.9216 24.5358 26.2264 23.6733C26.5562 22.7436 26.5497 22.0287 26.5106 21.8866C26.5085 21.9203 26.3132 21.828 26.1559 21.7521L25.8858 21.6198C25.1253 21.239 23.1596 20.2789 22.8157 20.1585C22.7246 20.1238 22.6552 20.1097 22.5966 20.1097C22.5478 20.1097 22.4469 20.1097 22.3102 20.3028L22.0932 20.6065C21.7125 21.1403 21.3534 21.6436 21.0345 21.9864C20.6255 22.4236 19.9236 22.5451 19.3194 22.2934L19.1816 22.237C18.5773 21.9929 17.1616 21.4201 15.4791 19.9231C14.1816 18.7667 13.2563 17.3597 12.8202 16.6231C12.3613 15.8322 12.8267 15.2877 13.0502 15.0262C13.1923 14.8494 13.3311 14.7029 13.47 14.5554C13.5611 14.4588 13.6522 14.3623 13.7455 14.2538C13.9896 13.9728 14.0699 13.8796 14.1751 13.655C14.2066 13.5932 14.224 13.5053 14.1111 13.271C14.0287 13.0974 13.5015 11.8238 13.0773 10.7911L12.6846 9.83968C12.5056 9.41009 12.5056 9.41009 12.165 9.39707C12.0087 9.38622 11.8439 9.37755 11.6605 9.37755Z" fill="white"/>
<path d="M8.53631 5.03062C8.83587 5.03062 9.07872 4.78778 9.07872 4.48821C9.07872 4.18865 8.83587 3.9458 8.53631 3.9458C8.23674 3.9458 7.9939 4.18865 7.9939 4.48821C7.9939 4.78778 8.23674 5.03062 8.53631 5.03062Z" fill="white"/>
</svg>
